<?xml version="1.0" encoding="utf-8"?>
<!-- Generator: Adobe Illustrator 26.5.0, SVG Export Plug-In . SVG Version: 6.00 Build 0)  -->
<svg version="1.1" xmlns="http://www.w3.org/2000/svg" xmlns:xlink="http://www.w3.org/1999/xlink" x="0px" y="0px"
	 viewBox="0 0 124.81 124.81" style="enable-background:new 0 0 124.81 124.81;" xml:space="preserve">
<style type="text/css">
	.st0{stroke:#000000;stroke-miterlimit:10;}
	.st1{fill:#FFFFFF;}
</style>
<g id="Layer_2">
	<circle class="st0" cx="63.05" cy="62.4" r="60.87"/>
</g>
<g id="Layer_1">
	<g>
		<g>
			<path class="st1" d="M47.89,2.71c-1.39,12.64-3.8,25.08-8.37,36.98c-4.24,11.04-9.65,21.59-17.78,30.27
				c-3.84,4.1-8.57,8.44-13.97,9.83c-3.11,0.8-1.79,5.62,1.33,4.82c5.44-1.4,10.14-5.14,14.09-8.99c4.46-4.34,8.37-9.34,11.66-14.62
				c3.35-5.36,5.93-11.23,8.32-17.06c2.42-5.9,4.41-11.97,5.91-18.17c1.83-7.58,2.94-15.32,3.8-23.06c0.15-1.34-1.25-2.5-2.5-2.5
				C48.91,0.21,48.04,1.37,47.89,2.71L47.89,2.71z"/>
		</g>
	</g>
	<g>
		<g>
			<path class="st1" d="M8.98,79.39c-0.62,0.24-1.26,0.42-1.93,0.51c0.22-0.03,0.44-0.06,0.66-0.09c-0.49,0.06-0.98,0.07-1.47,0.01
				c0.22,0.03,0.44,0.06,0.66,0.09c-0.38-0.05-0.75-0.14-1.11-0.28c0.2,0.08,0.4,0.17,0.6,0.25c-0.26-0.11-0.5-0.25-0.72-0.42
				c0.17,0.13,0.34,0.26,0.51,0.39c-0.21-0.16-0.39-0.35-0.56-0.56c0.13,0.17,0.26,0.34,0.39,0.51c-0.11-0.15-0.2-0.31-0.28-0.49
				c0.08,0.2,0.17,0.4,0.25,0.6c-0.05-0.14-0.09-0.29-0.12-0.44c0.03,0.22,0.06,0.44,0.09,0.66c-0.02-0.15-0.02-0.3-0.01-0.46
				c-0.03,0.22-0.06,0.44-0.09,0.66c0.02-0.17,0.07-0.33,0.13-0.5c-0.08,0.2-0.17,0.4-0.25,0.6c0.08-0.19,0.19-0.36,0.31-0.52
				c-0.13,0.17-0.26,0.34-0.39,0.51c0.16-0.19,0.34-0.36,0.53-0.51c-0.17,0.13-0.34,0.26-0.51,0.39c0.27-0.2,0.55-0.36,0.86-0.49
				c-0.2,0.08-0.4,0.17-0.6,0.25c0.35-0.14,0.71-0.24,1.08-0.3c-0.22,0.03-0.44,0.06-0.66,0.09c0.34-0.04,0.68-0.05,1.02-0.01
				c-0.22-0.03-0.44-0.06-0.66-0.09c0.36,0.05,0.71,0.14,1.05,0.28c-0.2-0.08-0.4-0.17-0.6-0.25c0.32,0.14,0.62,0.31,0.9,0.52
				c-0.17-0.13-0.34-0.26-0.51-0.39c0.29,0.23,0.55,0.48,0.78,0.77c-0.13-0.17-0.26-0.34-0.39-0.51c0.19,0.26,0.35,0.54,0.48,0.83
				c-0.08-0.2-0.17-0.4-0.25-0.6c0.02,0.06,0.05,0.12,0.07,0.18c0.23,0.62,0.56,1.15,1.15,1.49c0.54,0.31,1.33,0.45,1.93,0.25
				c1.2-0.39,2.22-1.76,1.75-3.08c-0.6-1.64-1.74-3.09-3.37-3.8c-0.92-0.4-1.86-0.67-2.88-0.65c-1.02,0.03-1.92,0.28-2.85,0.7
				c-1.69,0.76-2.95,2.38-3.03,4.25c-0.1,2.06,1.43,3.78,3.23,4.54c1.93,0.82,4.21,0.64,6.13-0.12c0.63-0.25,1.14-0.55,1.49-1.15
				c0.31-0.54,0.45-1.33,0.25-1.93c-0.2-0.6-0.57-1.19-1.15-1.49C10.35,79.35,9.6,79.15,8.98,79.39L8.98,79.39z"/>
		</g>
	</g>
	<g>
		<g>
			<path class="st1" d="M47.89,2.71c0.15,9.07,0.88,18.12,2.13,27.1c1.1,7.89,2.35,16.01,5.3,23.45c1.65,4.16,3.8,7.98,6.66,11.44
				c0.86,1.04,2.64,0.89,3.54,0c1.03-1.03,0.86-2.49,0-3.54c-4.56-5.5-6.83-12.42-8.35-19.3c-1.77-8.03-2.86-16.24-3.55-24.43
				c-0.41-4.9-0.65-9.81-0.73-14.72C52.84-0.5,47.84-0.51,47.89,2.71L47.89,2.71z"/>
		</g>
	</g>
	<g>
		<g>
			<path class="st1" d="M67.16,16.37c3.66,17.82,8.49,35.61,8.09,53.96c-0.1,4.61-0.53,9.21-1.41,13.74
				c-0.81,4.13-1.76,8.11-4.64,11.33c-2.43,2.72-5.53,4.68-9.23,5c-3.59,0.31-7.34-0.52-10.27-2.67c-3.07-2.26-4.9-5.85-6.03-9.41
				c-1.21-3.79-1.95-7.05-1.96-10.89c-0.01-3.22-5.01-3.22-5,0c0.01,3.67,0.64,7.18,1.67,10.7c1.21,4.11,2.89,8.08,5.8,11.3
				c5.79,6.39,16.46,8.02,23.83,3.47c3.81-2.35,6.89-5.95,8.62-10.06c1.94-4.6,2.6-9.91,3.13-14.83c1.1-10.24,0.28-20.55-1.28-30.69
				c-1.67-10.85-4.3-21.52-6.51-32.26c-0.27-1.32-1.84-2.09-3.08-1.75C67.54,13.68,66.89,15.05,67.16,16.37L67.16,16.37z"/>
		</g>
	</g>
	<g>
		<g>
			<path class="st1" d="M33.22,60.68c2.64,1.04,5.97,0.51,8.6-0.3c2.47-0.76,4.85-1.97,6.93-3.49c1.05-0.77,1.68-2.21,0.9-3.42
				c-0.67-1.04-2.29-1.72-3.42-0.9c-0.85,0.62-1.73,1.21-2.67,1.69c-0.52,0.27-1.06,0.51-1.6,0.75c-0.18,0.08-0.37,0.17-0.55,0.24
				c0.14-0.05,0.44-0.17,0.13-0.06c-0.29,0.1-0.57,0.21-0.86,0.3c-0.57,0.18-1.15,0.33-1.73,0.46c-0.3,0.06-0.61,0.11-0.91,0.17
				c-0.38,0.07,0.61-0.06-0.05,0.01c-0.14,0.01-0.27,0.03-0.41,0.04c-0.63,0.05-1.26,0.06-1.88,0c-0.09-0.01-0.46-0.11-0.13-0.01
				c0.38,0.11-0.12-0.03-0.2-0.05c-0.28-0.06-0.55-0.15-0.81-0.25c-1.22-0.48-2.8,0.52-3.08,1.75
				C31.15,59.04,31.92,60.17,33.22,60.68L33.22,60.68z"/>
		</g>
	</g>
	<g>
		<g>
			<path class="st1" d="M85.95,90.03c4.26,1.06,8.67,1.3,12.96,0.29c4.29-1.01,8.09-3.28,11.42-6.11c1.03-0.87,0.9-2.64,0-3.54
				c-1.02-1.02-2.5-0.88-3.54,0c-2.68,2.27-5.78,4.01-9.21,4.82c-3.38,0.8-6.92,0.55-10.31-0.29
				C84.15,84.43,82.82,89.25,85.95,90.03L85.95,90.03z"/>
		</g>
	</g>
	<g>
		<g>
			<path class="st1" d="M108.64,40.19c-2.24,20.31-4.38,41.13-0.2,61.35c1.18,5.71,2.93,11.25,5.21,16.61
				c0.53,1.24,2.36,1.52,3.42,0.9c1.29-0.75,1.43-2.17,0.9-3.42c-7.78-18.36-7.64-38.89-6.03-58.41c0.47-5.69,1.08-11.36,1.7-17.03
				c0.15-1.34-1.26-2.5-2.5-2.5C109.66,37.69,108.78,38.84,108.64,40.19L108.64,40.19z"/>
		</g>
	</g>
</g>
</svg>
